PathFileType	4	(X/Y/Z)	OpenSim_Sub03_CSStiffKnee_Accel.trc
DataRate	CameraRate	NumFrames	NumMarkers	Units	OrigDataRate	OrigDataStartFrame	OrigNumFrames
100	100	41	8	m	100	910	3637
Frame#	Time	torso_imu_offset_imu	pelvis_imu_offset_imu	tibia_r_imu_offset_imu	femur_r_imu_offset_imu	tibia_l_imu_offset_imu	femur_l_imu_offset_imu	toes_r_imu_offset_imu	toes_l_imu_offset_imu
				X1	Y1	Z1	X2	Y2	Z2	X3	Y3	Z3	X4	Y4	Z4	X5	Y5	Z5	X6	Y6	Z6	X7	Y7	Z7	X8		Y8	Z8	

910	9.09000000	8.62347700	2.87807800	5.50218800	10.58356600	0.15782700	4.05500500	3.86307000	-1.60667600	2.04638900	11.46261200	-1.66361900	2.38763300	10.85608500	-0.46095200	-1.69724300	9.72800700	-3.13311000	-2.52495300	0.67379100	-6.96420200	9.12588000	5.31667700	1.40784800	11.27820900
911	9.10000000	8.53105000	2.62027800	5.50019200	10.15915100	-0.29033600	3.95976400	2.96902700	-1.03129700	0.94850900	9.85906900	-1.61453100	2.67790800	10.32504700	-1.64068500	-1.08937500	9.76359100	-1.89534300	-2.12380500	-0.00018700	-7.67625300	9.07901000	5.60486300	1.73417700	10.91481200
912	9.11000000	7.98301000	2.19113300	5.27839200	9.44721100	-1.00386000	3.90804700	3.39200400	2.93422800	-0.16567800	9.34657600	-1.12733300	2.34701700	9.88289400	-1.64734300	-1.29156800	9.66405100	-0.88880900	-1.77639000	-0.96986800	-8.48265400	8.09322100	5.80263000	1.33682800	10.71645300
913	9.12000000	7.78425600	1.80655000	5.23644600	8.63608700	-1.52655100	3.83145600	4.83546800	4.28074500	1.43144000	9.14545000	-0.91040500	1.66907900	9.94003400	-0.93494800	-0.61119300	9.59347100	-0.20621800	-1.12337700	-0.90127100	-6.82302000	8.13984400	6.25759600	1.16089500	10.48168900
914	9.13000000	7.84620700	1.52168200	5.15361400	7.90662200	-1.82656200	3.64734000	4.99412700	4.32657200	1.10936100	9.00981800	-0.52988200	1.05774200	9.99166100	0.47497300	-0.26114800	9.73266900	0.40491600	-0.83866700	-0.06578100	-4.75017200	8.88554200	5.70722800	0.94918300	10.76722800
915	9.14000000	7.99332600	1.35054200	5.08978800	7.34357600	-1.83694400	3.45300000	4.90353100	4.43296000	0.82148200	8.65265900	-0.13517700	1.05218600	9.84307200	1.26435200	0.36829700	9.34683600	0.96279300	-0.83342200	0.43945900	-3.52300000	9.51790000	5.83855700	0.68834500	10.60751900
916	9.15000000	8.07761800	1.26817700	5.00095700	7.19679300	-1.45257600	3.21244200	5.25346100	4.77051300	0.30499100	8.28986400	-0.08884900	1.58246800	9.46407500	0.98859600	0.28921500	9.18250000	0.95631200	-0.73313600	1.01423500	-2.08497500	9.86684800	6.01408800	0.26608900	10.41713800
917	9.16000000	7.97018500	1.25324500	4.85826400	7.24477100	-1.10689100	2.92108600	5.57450200	5.26224500	0.47350800	8.46902100	-0.26141800	2.19511600	9.38380000	0.12140600	0.25918900	9.41178800	0.72540600	-0.70771000	1.71045000	-0.48671900	10.18361400	6.21442600	0.25908600	10.39210500
918	9.17000000	7.81551600	1.34205700	4.75136800	7.80096800	-0.45046400	2.77406600	5.52665800	5.91557900	0.56277600	8.36187700	-0.87729100	2.61112100	9.62194200	-0.57524400	0.10021600	9.37232900	0.63405100	-1.14099500	2.52675900	0.77474000	10.41666600	6.18321000	0.31696500	10.32672300
919	9.18000000	7.73106700	1.45162100	4.67180500	8.33492600	-0.15248300	2.70777600	5.59466800	6.34749000	0.49898900	8.54874500	-1.30066500	2.84062600	9.21328000	-1.13972800	-0.03023400	8.95580400	0.92720800	-1.60003900	3.26342700	1.25015500	10.41608500	6.24117800	0.62966600	10.15945500
920	9.19000000	7.71020200	1.57424200	4.71012000	8.81630000	0.16989500	2.63311900	5.78205500	6.52300200	0.57031500	8.62310400	-1.47456600	2.87700400	8.72078200	-1.47062000	-0.33011600	8.68950400	0.88487000	-1.82164600	4.13098400	1.50752000	10.47942300	6.63716200	0.86283100	9.71316400
921	9.20000000	7.66459900	1.79286700	4.76267600	8.95306100	0.21082400	2.51996200	5.96377400	6.83705500	0.49754900	8.61500500	-1.37849300	2.70773800	8.73599600	-2.01930100	-0.84946700	8.76530900	0.50108800	-1.70336100	4.97488800	1.73338300	10.60360100	6.64496300	0.91102600	9.59967000
922	9.21000000	7.65850800	1.92931800	4.78430600	9.01873600	0.09782800	2.34517100	6.18445700	7.14785300	0.48251800	8.36563100	-0.87157200	2.45087000	8.83025900	-3.04837700	-1.06480200	8.60414800	0.09559000	-1.82864400	5.59952500	1.40636500	10.52889100	6.73672100	1.05946800	9.63960800
923	9.22000000	7.70400200	1.97829100	4.87876400	8.84955000	-0.30565500	2.25011900	5.94762300	6.84151400	0.40517100	7.88554800	-0.10658400	2.07841400	8.62307800	-4.02552200	-1.17416600	8.48577000	-0.37371800	-1.81887800	6.28397900	0.66367200	10.26675600	6.51698400	1.10795600	9.71618200
924	9.23000000	7.80845700	1.93702900	4.91355200	8.69574900	-0.73511400	2.12791700	6.07377700	5.72547400	0.52243700	7.97113000	0.95507300	1.90905600	8.50834100	-4.04915700	-1.33465500	8.54125000	-0.86206000	-1.78092800	7.01127300	-0.13435400	9.92880800	6.93703000	1.13159500	9.34710400
925	9.24000000	7.86113000	1.89173300	4.97558600	8.47701100	-1.15947800	2.05092300	5.99550900	4.49995100	0.73404200	7.71602200	1.87048000	1.89631500	8.67275300	-3.63670300	-1.31286200	8.65186000	-1.41641200	-1.54229800	7.87159000	-1.01668200	9.52706200	6.89524400	1.05735500	9.36380600
926	9.25000000	7.87565200	1.84306900	5.00654600	8.56743800	-1.25891700	1.97508400	6.10844700	3.98039300	0.74115300	7.29469500	2.25714900	2.13938900	9.06856200	-3.31189900	-0.89834300	8.84276600	-1.77156000	-1.58825700	8.49211700	-1.99625300	9.10965300	6.94077500	1.01269100	9.55589200
927	9.26000000	7.92256600	1.70200600	5.09192600	8.54606600	-1.53895100	2.05815900	6.52648900	3.95748400	0.75901700	7.27971100	2.17776700	2.19874200	9.20441400	-3.59653200	-0.97690200	9.08950500	-1.77630600	-1.81337200	9.11569100	-2.88116300	8.80365700	6.38871400	0.94232400	9.95596700
928	9.27000000	8.01239800	1.59048500	5.15442700	8.66208200	-1.69932600	2.09195200	6.94932200	4.15805900	0.94262400	6.67737500	1.42884300	2.49247700	9.30177500	-2.51165300	-0.42136300	9.04287100	-1.50613100	-1.85891200	9.67748300	-3.38917500	8.69556600	6.50404100	0.92265300	9.98325900
929	9.28000000	8.14133900	1.48595400	5.24436100	8.78262700	-1.75822000	2.14393000	7.59488600	4.32417100	0.61055600	6.69194100	0.61704800	2.64838400	9.41265000	-1.63126000	-0.58692500	9.06658900	-1.31393700	-1.68478000	10.29788200	-3.83860000	8.65185600	6.41467900	0.76015200	10.14619600
930	9.29000000	8.30512100	1.47445600	5.35341200	8.71808000	-1.81885200	2.17598600	8.37552100	4.34813400	0.52970100	6.85381600	-0.49497500	2.81296100	9.42757600	-1.50614200	-0.32457500	8.94085200	-1.21461600	-1.44872300	11.32231700	-4.28710900	8.76756100	6.79131200	0.61531700	9.77176000
931	9.30000000	8.39722900	1.55407700	5.37903600	8.63376500	-1.81223800	2.13056400	9.75975900	4.19974800	0.30468300	6.60434100	-1.55457200	3.02190300	9.13932300	-1.66366400	-0.73857700	8.83429400	-0.97741900	-1.25871600	11.99867100	-3.83162900	8.41979600	6.09033000	0.77450900	10.18006200
932	9.31000000	8.37822300	1.62176000	5.39310600	8.66342000	-1.60377600	2.10695100	11.14437500	3.93434100	-0.62944400	6.88344700	-2.52623000	3.10937200	9.20728800	-1.43567000	-0.51830300	9.01539500	-0.65276600	-1.46559500	11.64449700	-1.94437300	7.34951600	6.33840700	1.07277500	10.08644000
933	9.32000000	8.33551500	1.67693900	5.48478600	8.55131500	-1.54707200	2.03682600	10.40807200	3.50003200	-0.78633700	6.99692800	-3.61534700	3.23528000	9.62668200	-1.50330500	-0.93098200	9.26171700	-0.20142700	-1.66041300	12.12054700	-0.34691300	6.43423900	6.28144000	1.27043000	10.02473800
934	9.33000000	8.33238600	1.72749800	5.56519700	8.51634100	-1.40351100	1.85842900	9.64324700	3.41299900	0.33527000	7.19406900	-4.68378200	3.31668900	10.12246900	-1.73170300	-0.79723900	9.56271500	0.10405000	-1.75327000	13.50039300	0.07210800	5.87623200	6.33040600	1.08050200	10.11591900
935	9.34000000	8.36938500	1.75203000	5.55184800	8.78509300	-1.38065800	1.69218800	10.46718700	3.81572100	0.30760500	7.60565600	-5.87842300	3.06748900	10.39646700	-1.55348800	-0.59009800	9.75983500	0.18628100	-1.77133900	14.63549700	0.17567900	5.36550000	5.96837400	0.82408900	10.66287500
936	9.35000000	8.60539500	1.75791500	5.51463200	9.03883100	-1.36370500	1.86469100	10.78128000	3.83308600	0.46789900	8.02867300	-6.59443700	2.82988700	10.63857900	-1.02596600	-0.20685600	10.09069200	0.17962200	-1.80259800	17.72357600	0.17723600	5.66848500	5.73784400	0.79920500	10.79750600
937	9.36000000	8.89501900	1.84709800	5.59936900	9.17309500	-1.53360100	2.09125800	11.38399100	3.83678900	-0.47683700	8.47209100	-6.78350600	2.46472600	10.63536800	-0.37540000	-0.34608000	10.22997300	0.50412300	-1.92792300	19.98027600	1.66743300	5.11124000	6.19083200	0.50540100	10.54717000
938	9.37000000	9.09731900	1.94947000	5.63487900	9.33190900	-1.72794800	2.10756700	10.69894300	3.61676000	-1.07044800	8.58714800	-7.11213500	2.28309700	10.72247100	0.49824000	-0.17410300	9.94872200	0.54623500	-1.99539800	19.94014200	3.57260800	3.10541100	6.06932500	0.25657900	10.60483500
939	9.38000000	9.13965800	2.03395600	5.68746800	9.44502700	-1.84781900	2.12129000	9.83310900	2.70622000	0.24894900	9.22242200	-7.12677300	2.04540900	10.64356300	1.26152600	-0.22907100	9.95360100	0.56321200	-2.34735200	20.44617000	4.16659400	0.65252400	5.90616300	0.44349000	10.80960000
940	9.39000000	9.23731600	2.13554800	5.61466100	9.67079400	-2.04972300	2.09189000	10.00997300	2.38489900	0.18719300	9.35510100	-7.62468200	2.08631300	10.56690700	1.74689100	-0.37525500	9.73142000	0.77080000	-2.57360300	20.27899400	4.18964700	-1.79152600	5.68306200	0.68008200	10.91746500
941	9.40000000	9.46516300	2.09519400	5.71963700	9.97409200	-2.06023500	2.04407700	9.85243400	2.24984600	0.02140900	9.24566800	-7.40967100	1.99355900	10.62565500	2.01164200	-0.83084900	9.79210300	0.71634600	-2.61051500	19.44984000	4.45503700	-3.92248100	5.82340200	1.00765300	10.82101400
942	9.41000000	9.63955500	2.11431300	5.76268700	10.31882200	-2.05545600	1.96033200	9.24813800	2.23105700	0.23490900	9.14887600	-6.61988700	1.75483200	10.78177900	1.55902700	-0.98794400	9.93203100	0.54242200	-2.59054600	18.80802100	4.69433300	-5.32460500	5.83501900	1.10767700	10.89872900
943	9.42000000	9.94563000	2.14680200	5.82720800	10.52117900	-1.97619300	1.90215500	9.06510400	2.05329800	0.51424900	8.83959900	-5.74394400	1.89433000	10.80966500	0.59689600	-1.07523100	9.93804200	0.35877600	-2.55114900	18.53013700	4.50701700	-6.24255300	6.00287300	1.19447200	10.77420600
944	9.43000000	10.14237000	2.18993600	5.83189000	10.41301400	-1.84594400	1.68182200	8.77646300	1.48268500	0.32679000	8.92233700	-5.23460700	2.71175900	10.83499100	-0.33697400	-0.89749800	9.99545000	-0.10696400	-2.33751200	17.41654200	3.68316400	-7.21161100	5.66080000	1.06474100	11.10122100
945	9.44000000	10.15320100	2.30268900	5.83864700	10.16298700	-1.62369500	1.24901000	8.50541700	1.80213400	-0.38020700	9.03429800	-4.89720700	3.76045300	10.83822200	-0.77614900	-0.58336700	10.20065200	-0.49899200	-2.34521200	16.18681800	2.79543100	-7.10755700	6.08558700	0.72463800	10.75539800
946	9.45000000	10.16892500	2.27541700	5.72740000	10.12033400	-1.54581200	0.86348600	8.46231600	2.16143600	-0.67381500	8.91552800	-4.72288600	4.66039700	10.81626000	-1.18952500	-0.48512600	9.99179500	-0.61696500	-2.35582100	15.82198600	1.45437300	-9.59051400	6.21686900	0.07206100	10.61897300
947	9.46000000	10.12061800	2.23397500	5.80389200	9.94395200	-1.71962200	0.60157800	8.24593200	0.73538000	-0.38271700	8.68034800	-4.68748900	5.17598400	10.67530000	-1.61129200	0.03290300	9.77451200	-0.60873400	-2.25717400	14.93920200	1.91806200	-8.97046700	6.37687300	-0.23532700	10.56287600
948	9.47000000	10.02976800	2.23563300	5.76105600	10.13025900	-2.05019800	0.76651500	8.25741600	1.00590300	-1.03653500	8.58905100	-4.75648500	5.34838200	10.67066500	-1.83993300	0.10455000	9.95050300	-0.79939800	-2.11040500	13.45057100	6.02936700	-2.14160100	5.75686700	-0.44650500	10.93352100
949	9.48000000	10.01041200	2.08438900	5.76782600	10.47079400	-2.10610900	1.23794200	9.63124100	2.75276300	-1.16910100	7.90386400	-4.66424700	4.41037400	10.53453200	-1.59467400	0.35362300	10.01963700	-0.94627000	-2.02031500	11.04510100	0.12914300	14.94659300	5.73094600	-0.27278300	11.00532700
950	9.49000000	10.44107900	1.99395300	5.79477600	11.05090800	-1.72633800	2.50332500	13.41049300	1.15506900	3.87478900	8.43020800	-4.74442600	2.94331600	10.94257900	-1.43979200	0.05837900	10.17389800	-0.64059900	-2.17607700	1.26006300	2.23419600	19.25735300	6.36537500	-0.47065600	10.72079900
